<svg width="360" height="221" viewBox="0 0 360 221" fill="none" xmlns="http://www.w3.org/2000/svg">
<mask id="mask0" mask-type="alpha" maskUnits="userSpaceOnUse" x="0" y="0" width="360" height="221">
<path d="M0 0H360C360 0 284 146.79 181 160.245C88.2703 172.359 0 221 0 221V0Z" fill="black"/>
</mask>
<g mask="url(#mask0)">
<rect width="360" height="271" fill="#869A2B"/>
<path d="M369.893 -59.7113C329.563 -80 168.183 -80 168.183 -80C168.183 -80 7.31989 -80 -32.8932 -59.7113C-32.8932 -59.7113 -44.3835 156.492 -32.8932 251.091C-28.2394 289.196 5.25398 324.023 43.69 352.012C100.564 393.506 168.183 420 168.183 420C168.183 420 257.806 385 317.729 332.412C345.074 308.446 366.272 280.746 369.893 251.091C381.383 156.492 369.893 -59.7113 369.893 -59.7113ZM349.04 242.702C346.857 260.691 337.494 277.818 324.049 293.679C324.565 271.268 320.256 245.346 309.343 215.519C309.343 215.519 286.835 154.997 278.199 137.72C267.092 115.498 251.298 92.8759 251.298 83.7982C251.298 74.715 257.09 54.9652 261.027 49.4319C263.776 45.5653 271.773 35.1209 268.725 32.0765C265.681 29.0321 252.008 37.3043 252.008 37.3043C251.492 37.8209 203.693 61.4984 227.823 109.831C252.008 158.108 264.076 185.292 261.027 188.336C261.027 188.336 188.582 159.12 155.377 195.33C130.847 222.113 136.401 239.063 136.401 245.102C136.401 251.141 146.303 363.512 261.027 290.985C261.027 290.985 248.965 363.512 176.519 363.512C104.074 363.512 104.074 294.024 104.074 294.024C104.074 294.024 105.973 231.769 137.756 188.814C183.789 126.603 194.896 98.8258 195.09 86.1093C195.651 49.9097 189.342 37.7154 189.342 37.7154C189.342 37.7154 176.519 -14.0229 120.673 -0.400879C120.673 -0.400879 78.3884 -6.43414 57.2461 32.8154C57.2461 32.8154 15.0226 62.9873 36.1038 84.1371C36.1038 84.1371 34.6099 91.6648 37.6533 94.7092C40.6411 97.698 34.6099 85.6315 40.6411 85.6315C40.6411 85.6315 49.7211 88.6759 55.7522 85.6315C61.7834 82.6426 46.6722 91.6648 49.7211 97.698C49.7211 97.698 36.0483 98.1591 30.3004 103.903C27.4292 106.776 31.6221 118.848 25.5299 121.892C19.4988 124.881 10.4798 137.009 13.4676 143.042C13.4676 143.042 20.0153 132.409 25.5299 130.17C26.3907 129.825 27.3126 130.459 27.3126 131.375C27.3681 134.481 28.5177 141.431 37.5977 146.031C37.0813 145.459 31.5055 139.248 36.3315 130.459C38.7418 126.148 39.547 121.092 39.0916 116.148C38.975 114.942 38.9195 113.731 38.9195 112.526C38.9195 106.492 49.7211 103.792 49.7211 103.792C49.7211 103.792 70.8634 133.964 122.167 76.6094C122.167 76.6094 134.229 73.565 140.266 64.4817C140.266 64.4817 149.34 103.792 98.0424 161.147C98.0424 161.147 33.0105 231.374 38.1809 318.734C11.9849 296.551 -8.64095 270.574 -12.0286 242.702C-22.3693 157.875 -12.0286 -35.9727 -12.0286 -35.9727C23.9916 -54.1336 168.25 -54.1336 168.25 -54.1336C168.25 -54.1336 312.908 -54.1336 349.045 -35.9727C349.04 -35.9727 359.38 157.875 349.04 242.702ZM244.422 238.158C244.422 238.158 196.107 271.374 187.088 250.224C187.088 250.224 184.044 235.108 205.187 232.119C226.329 229.08 244.422 238.158 244.422 238.158Z" fill="#A7BB4D"/>
</g>
</svg>
