<svg width="360" height="221" viewBox="0 0 360 221" fill="none" xmlns="http://www.w3.org/2000/svg">
<mask id="mask0" mask-type="alpha" maskUnits="userSpaceOnUse" x="0" y="0" width="360" height="221">
<path d="M0 0H360C360 0 284 146.79 181 160.245C88.2703 172.359 0 221 0 221V0Z" fill="black"/>
</mask>
<g mask="url(#mask0)">
<rect width="360" height="271" fill="#3A6697"/>
<path d="M384.779 -64.2942C343.679 -85 179.159 -85 179.159 -85C179.159 -85 15.2054 -85 -25.7816 -64.2942C-25.7816 -64.2942 -37.5229 156.233 -25.7816 252.701C-24.3777 264.227 -20.4035 275.413 -14.4536 286.259C29.3017 366.226 179.159 425 179.159 425C179.159 425 248.746 397.778 307.085 355.193C346.102 326.718 380.08 291.376 384.779 252.701C396.526 156.233 384.779 -64.2942 384.779 -64.2942ZM184.843 269.078L176.057 277.838C165.187 276.473 162.532 281.442 162.838 287.166L154.199 290.39L146.624 286.599H135.262L135.109 286.446C134.923 283.035 129.273 266.159 129.273 266.159L164.429 247.199C166.206 246.253 168.329 246.326 169.999 247.465C175.038 250.877 185.568 258.085 187.764 260.283C190.674 263.201 184.843 269.078 184.843 269.078ZM325.116 310.07C325.003 310.183 324.889 310.257 324.776 310.336C313.335 321.409 300.269 331.762 286.744 341.123L279.204 335.893H245.112C245.112 335.893 237.537 324.52 229.957 316.932C226.13 313.102 214.542 303.434 204.006 294.787C203.78 288.718 196.545 277.838 196.545 277.838V269.078C196.545 269.078 205.297 248.565 216.998 242.722C228.706 236.886 234.537 266.154 234.537 266.154L237.452 260.277C243.323 271.996 255.03 280.751 257.946 283.709C260.861 286.627 257.946 295.388 257.946 295.388C257.946 295.388 260.861 292.469 263.777 289.546C266.692 286.627 284.231 312.977 284.231 312.977V298.34C290.747 304.823 295.593 312.903 297.716 316.694C297.07 312.031 298.854 301.264 298.854 301.264C298.854 301.264 304.724 307.101 310.561 310.025C315.146 312.337 321.43 311.05 324.006 310.365C320.519 309.832 314.461 298.006 322.263 295.388C328.02 293.489 331.281 297.853 334.462 300.238C331.507 303.576 328.326 306.874 324.991 310.098C325.042 310.07 325.082 310.07 325.116 310.07ZM363.533 244.167C361.676 259.524 354.667 274.314 344.364 288.191C332.13 275.64 297.999 239.81 307.657 239.81C319.364 239.81 331.066 233.933 331.066 233.933C331.066 233.933 316.443 231.015 325.195 228.097C325.688 227.944 326.141 227.791 326.559 227.677C330.047 226.578 330.879 221.954 327.884 219.943C315.045 211.222 283.376 199.582 281.44 198.863C319.358 204.665 328.111 195.905 331.066 192.987C333.981 190.068 328.111 187.11 328.111 187.11C290.113 195.905 263.788 178.35 263.788 178.35C281.327 175.431 290.118 166.631 290.118 166.631C255.042 172.468 219.925 143.2 219.925 143.2C252.086 143.2 275.496 128.563 275.496 128.563C257.957 128.563 249.165 122.721 249.165 122.721C281.327 119.802 319.358 93.447 319.358 93.447C309.508 97.0113 301.82 93.447 301.82 93.447C319.358 87.6047 322.274 70.0496 322.274 70.0496C317.083 78.0509 287.197 87.6048 287.197 87.6048C272.574 87.6048 278.411 81.7285 278.411 81.7285C339.818 64.1733 331.066 40.7759 331.066 40.7759C328.111 49.5365 325.195 46.6125 325.195 46.6125C328.111 37.852 325.195 31.9757 325.195 31.9757C321.481 38.991 237.537 62.8813 214.808 62.8813C199.805 62.8813 146.811 87.6048 146.811 87.6048L129.273 75.8862C129.273 2.7077 59.1135 43.6942 59.1135 43.6942C44.4907 43.6942 18.1662 52.4548 12.3295 58.3311C6.45883 64.1677 13.7674 71.4889 13.7674 71.4889C31.3058 53.9338 66.4221 80.2835 66.4221 80.2835C21.3421 181.143 103.695 212.202 119.456 217.126C120.86 217.546 121.806 218.832 121.845 220.311C122.185 231.423 132.188 251.517 132.188 251.517L117.605 263.196H108.819C90.9408 252.01 85.0305 259.631 83.2132 263.842H74.6535L63.2915 271.424C63.2915 271.424 67.0788 275.215 55.7168 271.424C44.3548 267.633 32.9872 271.424 32.9872 271.424L8.44025 279.119C1.54492 267.933 -3.07461 256.215 -4.51821 244.156C-15.0877 157.627 -4.51821 -40.1148 -4.51821 -40.1148C32.1889 -58.6163 179.244 -58.6163 179.244 -58.6163C179.244 -58.6163 326.718 -58.6163 363.538 -40.1148C363.533 -40.1035 374.062 157.638 363.533 244.167Z" fill="#7AAEE8"/>
</g>
</svg>
