<svg width="21" height="21" viewBox="0 0 21 21" fill="none" xmlns="http://www.w3.org/2000/svg">
  <path fill-rule="evenodd" clip-rule="evenodd" d="M10.2692 2.99878C8.46781 2.99878 6.74067 3.72681 5.46754 5.02177C4.19441 6.31673 3.47803 8.07293 3.47803 9.90427C3.47803 11.7356 4.19402 13.4922 5.46754 14.7868C6.74107 16.0817 8.46821 16.8098 10.2692 16.8098C12.0703 16.8098 13.7978 16.0817 15.0709 14.7868C16.3445 13.4918 17.0605 11.7356 17.0605 9.90427C17.0593 8.07253 16.3429 6.31793 15.0694 5.02338C13.7958 3.72842 12.0707 3.00039 10.2692 2.99878V2.99878ZM5.94775 10.5323H7.18256V9.27668H5.94775V10.5323ZM12.1212 8.64912H10.8864V8.55791C10.8864 8.26139 10.6505 8.02113 10.3589 8.02113H10.1784H10.1795C9.93417 8.02113 9.72277 8.19229 9.66587 8.43376C9.61015 8.67564 9.72435 8.92514 9.94365 9.03644L11.1476 9.64836C11.7897 9.9734 12.1722 10.6625 12.1153 11.3905C12.058 12.1173 11.572 12.7357 10.8864 12.9522V13.671H9.65204V12.9522C8.92025 12.72 8.42 12.0309 8.41724 11.2511V11.1599H9.65204V11.2511C9.65204 11.5476 9.88794 11.7879 10.1795 11.7879H10.3601H10.3589C10.6043 11.7879 10.8157 11.6167 10.8726 11.3748C10.9283 11.1334 10.8141 10.8838 10.5948 10.7722L9.39085 10.1602C8.74876 9.83519 8.36626 9.14613 8.42316 8.41809C8.48046 7.69126 8.96648 7.07291 9.65204 6.85675V6.13756H10.8864V6.85675C11.6182 7.08898 12.1185 7.77805 12.1212 8.55791V8.64912ZM13.3564 10.5323H14.5912V9.27668H13.3564V10.5323Z" fill="#F5B90A"/>
  <mask id="mask0" style="mask-type:alpha" maskUnits="userSpaceOnUse" x="1" y="0" width="19" height="20">
    <path fill-rule="evenodd" clip-rule="evenodd" d="M1.00854 0.487549H19.5302V19.321H1.00854V0.487549Z" fill="white"/>
  </mask>
  <g mask="url(#mask0)">
    <path fill-rule="evenodd" clip-rule="evenodd" d="M10.2694 0.487549C7.81359 0.487549 5.45818 1.47956 3.72037 3.245C1.98414 5.01246 1.00854 7.4071 1.00854 9.9042C1.00854 12.4013 1.98414 14.7963 3.72037 16.5634C5.45858 18.3292 7.81359 19.3213 10.2694 19.3213C12.7251 19.3213 15.0806 18.3292 16.8184 16.5634C18.555 14.7963 19.5302 12.4013 19.5302 9.9042C19.5274 7.4071 18.5502 5.01367 16.8152 3.24822C15.079 1.48398 12.7247 0.490763 10.2694 0.487549ZM10.2694 18.0657C8.14082 18.0657 6.09876 17.2055 4.59408 15.6755C3.0894 14.1451 2.24341 12.0686 2.24341 9.90421C2.24341 7.74019 3.0894 5.66376 4.59408 4.13376C6.09915 2.60336 8.14122 1.74314 10.2694 1.74314C12.398 1.74314 14.4401 2.60336 15.9448 4.13376C17.4499 5.66376 18.2954 7.74019 18.2954 9.90421C18.2927 12.0686 17.4467 14.1418 15.9416 15.6718C14.4369 17.2022 12.398 18.0625 10.2694 18.0657Z" fill="#F5B90A"/>
  </g>
</svg>
