<svg width="537" height="650" viewBox="0 0 537 650" fill="none" xmlns="http://www.w3.org/2000/svg">
<path d="M530.341 26.3897C477.916 -1.90735e-06 268.065 0 268.065 0C268.065 0 58.9365 -1.90735e-06 6.6562 26.3897C6.6562 26.3897 -8.32024 307.454 6.6562 430.404C8.44701 445.093 13.5162 459.35 21.1055 473.173C76.9169 575.092 268.065 650 268.065 650C268.065 650 356.826 615.305 431.239 561.03C481.006 524.739 524.347 479.695 530.341 430.404C545.324 307.454 530.341 26.3897 530.341 26.3897ZM275.315 451.276L264.108 462.441C250.244 460.7 246.857 467.034 247.247 474.329L236.228 478.438L226.566 473.606H212.073L211.878 473.411C211.64 469.064 204.433 447.556 204.433 447.556L249.276 423.391C251.543 422.185 254.251 422.279 256.381 423.73C262.808 428.078 276.239 437.265 279.041 440.067C282.753 443.786 275.315 451.276 275.315 451.276ZM454.238 503.521C454.094 503.665 453.949 503.759 453.805 503.86C439.211 517.972 422.545 531.167 405.294 543.098L395.675 536.432H352.19C352.19 536.432 342.529 521.937 332.86 512.267C327.978 507.384 313.197 495.063 299.758 484.042C299.469 476.307 290.241 462.441 290.241 462.441V451.276C290.241 451.276 301.405 425.131 316.331 417.685C331.264 410.247 338.701 447.549 338.701 447.549L342.42 440.06C349.908 454.995 364.841 466.153 368.56 469.923C372.279 473.643 368.56 484.808 368.56 484.808C368.56 484.808 372.279 481.089 375.998 477.362C379.717 473.643 402.088 507.225 402.088 507.225V488.571C410.399 496.833 416.58 507.132 419.288 511.963C418.465 506.019 420.74 492.297 420.74 492.297C420.74 492.297 428.228 499.736 435.673 503.463C441.522 506.409 449.537 504.77 452.823 503.896C448.375 503.217 440.648 488.145 450.599 484.808C457.942 482.389 462.102 487.95 466.16 490.99C462.391 495.244 458.332 499.447 454.079 503.557C454.144 503.521 454.195 503.521 454.238 503.521ZM503.24 419.527C500.871 439.099 491.932 457.949 478.79 475.636C463.185 459.639 419.649 413.973 431.968 413.973C446.901 413.973 461.827 406.484 461.827 406.484C461.827 406.484 443.175 402.764 454.339 399.045C454.967 398.85 455.545 398.655 456.079 398.511C460.528 397.109 461.589 391.216 457.769 388.652C441.392 377.537 400.997 362.703 398.528 361.786C446.894 369.181 458.058 358.016 461.827 354.297C465.546 350.577 458.058 346.807 458.058 346.807C409.59 358.016 376.012 335.642 376.012 335.642C398.383 331.922 409.598 320.706 409.598 320.706C364.856 328.145 320.064 290.843 320.064 290.843C361.087 290.843 390.946 272.188 390.946 272.188C368.575 272.188 357.361 264.742 357.361 264.742C398.383 261.023 446.894 227.432 446.894 227.432C434.33 231.975 424.523 227.432 424.523 227.432C446.894 219.986 450.613 197.612 450.613 197.612C443.991 207.81 405.871 219.986 405.871 219.986C387.22 219.986 394.664 212.497 394.664 212.497C472.991 190.123 461.827 160.303 461.827 160.303C458.058 171.468 454.339 167.741 454.339 167.741C458.058 156.576 454.339 149.087 454.339 149.087C449.602 158.028 342.528 188.476 313.536 188.476C294.4 188.476 226.804 219.986 226.804 219.986L204.433 205.051C204.433 111.784 114.943 164.022 114.943 164.022C96.291 164.022 62.7131 175.188 55.2682 182.677C47.78 190.116 57.1024 199.447 57.1024 199.447C79.4732 177.072 124.265 210.655 124.265 210.655C66.7641 339.202 171.809 378.787 191.912 385.063C193.703 385.597 194.909 387.237 194.959 389.122C195.393 403.284 208.152 428.894 208.152 428.894L189.551 443.779H178.344C155.54 429.522 148.001 439.236 145.683 444.602H134.765L120.272 454.266C120.272 454.266 125.103 459.097 110.61 454.266C96.1177 449.434 81.6178 454.266 81.6178 454.266L50.3074 464.073C41.5122 449.817 35.6198 434.881 33.7784 419.513C20.2967 309.23 33.7784 57.2066 33.7784 57.2066C80.5997 33.6263 268.173 33.6263 268.173 33.6263C268.173 33.6263 456.282 33.6263 503.247 57.2066C503.24 57.221 516.671 309.245 503.24 419.527Z" fill="#003A7A"/>
</svg>
