<svg width="360" height="221" viewBox="0 0 360 221" fill="none" xmlns="http://www.w3.org/2000/svg">
<mask id="mask0" mask-type="alpha" maskUnits="userSpaceOnUse" x="0" y="0" width="360" height="221">
<path d="M0 0H360C360 0 284 146.79 181 160.245C88.2703 172.359 0 221 0 221V0Z" fill="black"/>
</mask>
<g mask="url(#mask0)">
<rect width="360" height="271" fill="url(#paint0_linear)"/>
<path d="M384.621 -65.6561C342.143 -87 172.167 -87 172.167 -87C172.167 -87 2.73403 -87 -39.6212 -65.6561C-39.6212 -65.6561 -51.7235 161.792 -39.6212 261.311C-32.3621 320.866 42.1295 372.8 100.705 404.903C116.919 413.793 131.929 421.169 143.973 426.727C161.1 434.646 172.172 439 172.172 439C172.172 439 172.716 438.819 173.687 438.398C179.256 436.16 199.705 427.697 225.91 414.395C286.112 383.682 376.572 327.155 384.621 261.311C396.724 161.792 384.621 -65.6561 384.621 -65.6561ZM55.0215 234.953C55.0215 234.953 52.5413 291.182 47.5167 318.628C45.8848 327.815 47.8209 336.95 51.1492 345.109C16.3572 319.171 -13.4745 287.307 -17.651 252.486C-19.1016 240.453 -20.1896 226.367 -20.9208 210.95C-17.2883 215.245 -12.1467 219.05 -4.94618 221.23C-4.94618 221.23 -12.4509 188.764 0.0140811 191.242C0.0140811 191.242 16.2928 187.496 22.5224 176.251C22.5283 176.245 58.7709 188.758 55.0215 234.953ZM231.59 383.864C231.59 383.834 231.59 383.799 231.596 383.77C231.742 379.603 230.742 375.5 228.964 371.73C225.916 365.255 219.394 352.093 214.294 346.401C212.72 344.647 211.702 342.461 211.784 340.106C212.018 333.023 214.551 317.886 230.023 302.433C230.023 302.433 271.29 267.425 267.54 248.681C267.54 248.681 286.299 244.935 291.26 249.95C291.26 249.95 311.288 247.472 320.062 249.95C328.777 252.428 347.536 266.215 352.555 263.672C352.555 263.672 355.702 265.063 359.633 266.092C344.202 315.425 280.485 357.745 231.59 383.864ZM365.441 220.681C362.054 217.957 357.515 216.204 351.28 216.204C333.79 216.204 333.79 218.746 320.056 218.746C306.257 218.746 293.792 212.458 293.792 212.458C293.792 212.458 319.348 179.951 314.429 156.374C314.055 154.568 314.031 152.727 314.599 150.968C316.459 145.223 321.471 132.319 330.398 126.959C333.147 125.311 335.194 122.734 335.533 119.543C336.809 107.538 340.663 83.5935 346.255 80.1044C346.255 80.1044 350.683 69.1928 348.794 65.1075C346.53 60.204 344.395 51.4783 331.246 56.3408C328.187 57.4747 311.165 70.7942 308.211 75.8847C304.59 82.1265 300.022 91.0452 300.022 96.3052C300.022 96.3052 298.173 102.623 299.735 112.804C299.917 113.996 281.263 163.773 270.009 166.257C270.009 166.257 251.25 132.523 237.516 128.771C237.516 128.771 221.301 127.561 217.546 123.815C217.546 123.815 230.011 113.838 243.81 117.526C243.81 117.526 245.02 91.3491 251.25 91.3491C251.25 91.3491 232.55 90.0808 223.775 93.8271C223.775 93.8271 197.512 86.3287 220.026 67.5856C220.026 67.5856 227.531 71.3318 232.55 71.3318C232.55 71.3318 237.51 78.8303 237.51 83.8448C237.51 83.8448 243.804 83.8448 243.804 81.3025L246.284 83.8448C246.284 83.8448 253.789 73.8099 253.789 68.848C253.789 68.848 268.792 50.1048 266.92 42.0044C266.92 42.0044 253.122 31.9695 235.638 31.9695C235.638 31.9695 230.678 17.037 210.65 13.2848C210.65 13.2848 188.141 -4.24851 181.906 -4.24851L188.141 2.04011C188.141 2.04011 142.516 -12.3489 133.801 -1.1042C133.801 -1.1042 152.56 2.64208 152.56 8.87226C152.56 8.87226 122.546 1.37384 115.042 13.8926C115.042 13.8926 125.027 11.4146 127.507 13.8926C127.507 13.8926 91.2582 28.8836 88.7781 37.5919C88.7781 37.5919 95.0135 35.1138 97.5521 37.5919C97.5521 37.5919 87.5088 46.3585 87.5088 50.1048C87.5088 50.1048 93.8027 47.6268 93.8027 50.1048C93.8027 50.1048 75.0438 71.326 77.5239 80.0927C77.5239 80.0927 81.2734 73.8041 90.0474 73.8041C90.0474 73.8041 83.7535 93.8154 73.7687 100.046C73.7687 100.046 80.0041 100.046 83.7535 96.2993C83.7535 96.2993 76.2488 121.267 56.2791 126.287C56.2791 126.287 61.3037 128.765 67.5332 128.765C67.5332 128.765 78.7874 133.786 78.7874 140.01C78.7874 140.01 92.5217 135.054 96.277 137.532C96.277 137.532 101.302 169.998 112.556 169.998C112.556 169.998 121.271 198.717 130.045 202.464C130.045 202.464 132.525 223.685 136.281 227.431C136.281 227.431 138.761 277.43 130.045 286.139C130.045 286.139 94.2824 324.168 91.4396 352.584C91.2582 354.641 89.4449 356.032 87.386 355.787C83.5137 355.243 77.8866 353.794 76.2546 349.861C76.2546 349.861 61.3095 328.639 66.2698 301.13C66.2698 301.13 72.4175 264.263 70.803 241.534C70.5106 237.39 70.2649 233.252 70.1596 229.097C69.8203 215.731 65.135 182.639 28.8163 164.972C28.8163 164.972 12.5376 146.287 -6.22134 152.517C-13.4804 154.937 -18.6863 160.501 -22.3188 166.485C-23.6524 71.9864 -17.6568 -40.712 -17.6568 -40.712C20.2821 -59.8175 172.225 -59.8175 172.225 -59.8175C172.225 -59.8175 324.589 -59.8175 362.651 -40.712C362.657 -40.6828 371.372 122.377 365.441 220.681Z" fill="#FFB156"/>
</g>
<defs>
<linearGradient id="paint0_linear" x1="180" y1="0" x2="180" y2="271" gradientUnits="userSpaceOnUse">
<stop stop-color="#7E0001"/>
<stop offset="1" stop-color="#7E0001"/>
</linearGradient>
</defs>
</svg>
