<svg width="537" height="650" viewBox="0 0 537 650" fill="none" xmlns="http://www.w3.org/2000/svg">
<path d="M530.36 26.3756C477.922 0 268.088 0 268.088 0C268.088 0 58.9268 0 6.64005 26.3756C6.64005 26.3756 -8.30006 307.443 6.64005 430.423C15.6012 504.017 107.56 568.194 179.87 607.866C199.887 618.851 218.416 627.965 233.283 634.833C254.426 644.619 268.096 650 268.096 650C268.096 650 268.767 649.776 269.966 649.256C276.84 646.49 302.085 636.032 334.434 619.594C408.752 581.642 520.424 511.788 530.36 430.423C545.3 307.443 530.36 26.3756 530.36 26.3756ZM123.475 397.851C123.475 397.851 120.413 467.336 114.21 501.251C112.196 512.604 114.586 523.893 118.695 533.975C75.7444 501.923 38.9176 462.547 33.7619 419.517C31.9711 404.647 30.628 387.241 29.7254 368.189C34.2096 373.497 40.5568 378.199 49.4457 380.893C49.4457 380.893 40.1813 340.773 55.5691 343.836C55.5691 343.836 75.665 339.206 83.3553 325.311C83.3625 325.303 128.103 340.766 123.475 397.851ZM341.446 581.866C341.446 581.829 341.446 581.786 341.453 581.75C341.634 576.601 340.399 571.531 338.204 566.872C334.442 558.87 326.39 542.606 320.094 535.571C318.151 533.404 316.895 530.703 316.996 527.793C317.285 519.039 320.411 500.334 339.511 481.238C339.511 481.238 390.454 437.977 385.826 414.816C385.826 414.816 408.983 410.186 415.107 416.383C415.107 416.383 439.831 413.321 450.662 416.383C461.422 419.445 484.579 436.482 490.775 433.341C490.775 433.341 494.66 435.059 499.512 436.331C480.463 497.293 401.806 549.589 341.446 581.866ZM506.682 380.214C502.502 376.848 496.898 374.682 489.201 374.682C467.61 374.682 467.61 377.823 450.655 377.823C433.621 377.823 418.233 370.052 418.233 370.052C418.233 370.052 449.782 329.882 443.709 300.748C443.247 298.516 443.218 296.241 443.918 294.067C446.214 286.968 452.403 271.021 463.422 264.398C466.816 262.362 469.343 259.177 469.762 255.233C471.336 240.399 476.095 210.809 482.998 206.498C482.998 206.498 488.464 193.014 486.132 187.966C483.337 181.906 480.702 171.123 464.469 177.132C460.692 178.533 439.679 194.993 436.033 201.283C431.563 208.997 425.924 220.018 425.924 226.518C425.924 226.518 423.642 234.325 425.57 246.906C425.794 248.379 402.766 309.891 388.873 312.961C388.873 312.961 365.715 271.274 348.761 266.637C348.761 266.637 328.744 265.142 324.108 260.513C324.108 260.513 339.496 248.184 356.53 252.742C356.53 252.742 358.025 220.393 365.715 220.393C365.715 220.393 342.63 218.826 331.799 223.456C331.799 223.456 299.377 214.189 327.17 191.028C327.17 191.028 336.435 195.657 342.63 195.657C342.63 195.657 348.753 204.923 348.753 211.12C348.753 211.12 356.523 211.12 356.523 207.978L359.585 211.12C359.585 211.12 368.849 198.719 368.849 192.588C368.849 192.588 387.371 169.426 385.06 159.416C385.06 159.416 368.026 147.016 346.443 147.016C346.443 147.016 340.319 128.563 315.595 123.926C315.595 123.926 287.809 102.259 280.111 102.259L287.809 110.031C287.809 110.031 231.485 92.2495 220.726 106.145C220.726 106.145 243.884 110.774 243.884 118.473C243.884 118.473 206.833 109.207 197.569 124.677C197.569 124.677 209.895 121.615 212.957 124.677C212.957 124.677 168.208 143.202 165.147 153.963C165.147 153.963 172.844 150.901 175.978 153.963C175.978 153.963 163.58 164.797 163.58 169.426C163.58 169.426 171.35 166.364 171.35 169.426C171.35 169.426 148.192 195.65 151.254 206.483C151.254 206.483 155.882 198.712 166.714 198.712C166.714 198.712 158.944 223.441 146.618 231.14C146.618 231.14 154.315 231.14 158.944 226.511C158.944 226.511 149.68 257.364 125.027 263.568C125.027 263.568 131.23 266.63 138.92 266.63C138.92 266.63 152.813 272.834 152.813 280.526C152.813 280.526 169.768 274.401 174.404 277.463C174.404 277.463 180.607 317.583 194.5 317.583C194.5 317.583 205.259 353.073 216.09 357.702C216.09 357.702 219.152 383.926 223.788 388.556C223.788 388.556 226.85 450.342 216.09 461.103C216.09 461.103 171.942 508.098 168.432 543.212C168.208 545.754 165.97 547.473 163.428 547.17C158.648 546.498 151.701 544.707 149.687 539.847C149.687 539.847 131.237 513.623 137.361 479.628C137.361 479.628 144.95 434.07 142.957 405.983C142.596 400.862 142.293 395.749 142.163 390.614C141.744 374.097 135.96 333.204 91.125 311.372C91.125 311.372 71.0291 288.282 47.8716 295.981C38.9104 298.971 32.4838 305.847 27.9996 313.242C26.3532 196.466 33.7547 57.2 33.7547 57.2C80.5896 33.5906 268.161 33.5906 268.161 33.5906C268.161 33.5906 456.251 33.5906 503.238 57.2C503.245 57.2361 514.005 258.736 506.682 380.214Z" fill="#5A1311"/>
</svg>
