<svg width="73" height="86" viewBox="0 0 73 86" fill="none" xmlns="http://www.w3.org/2000/svg">
<path d="M13.9453 74.5156H58.2425L60.7035 77.7969H11.4844L13.9453 74.5156ZM56.0847 47.1854L52.7085 49.4361L50.1531 46.8802L54.8069 43.7777L56.0847 47.1854ZM37.0777 45.3129L30.866 40.6538L27.7326 33.3419L35.1567 36.5242L44.6862 46.0529L34.9147 50.1241L37.2538 47.785C37.4199 47.6187 37.5484 47.4187 37.6305 47.1985C37.7126 46.9783 37.7464 46.7431 37.7297 46.5087C37.713 46.2743 37.6461 46.0462 37.5336 45.8399C37.4211 45.6336 37.2656 45.4538 37.0776 45.3128L37.0777 45.3129ZM30.9447 20.3751H34.4533C34.7682 20.3751 35.0764 20.2844 35.3411 20.114C35.6058 19.9435 35.8159 19.7004 35.9461 19.4138L43.7052 2.3431C43.7519 2.24037 43.8193 2.14837 43.9032 2.07287C43.987 1.99737 44.0856 1.93999 44.1926 1.90431L49.7798 0.0420887C49.9031 0.00098994 50.0345 -0.0102199 50.1629 0.00938421C50.2914 0.0289883 50.4134 0.0788448 50.5189 0.154845C50.6243 0.230844 50.7102 0.330812 50.7694 0.44651C50.8286 0.562208 50.8595 0.690325 50.8595 0.820302V2.32821C50.8595 2.59829 50.9262 2.86419 51.0537 3.1023C51.1811 3.34042 51.3653 3.5434 51.5901 3.69321L56.5119 6.97446C56.7815 7.15416 57.0981 7.25007 57.4221 7.25008H65.9011C66.0402 7.25008 66.177 7.28547 66.2987 7.35292C66.4204 7.42036 66.5229 7.51765 66.5967 7.63563L71.7454 15.8722L54.623 10.6042C54.4169 10.54 54.2002 10.5172 53.9852 10.5369C53.7702 10.5567 53.5613 10.6187 53.3703 10.7194C53.1794 10.8201 53.0102 10.9575 52.8724 11.1237C52.7347 11.2899 52.6311 11.4817 52.5676 11.688C52.5042 11.8944 52.482 12.1112 52.5026 12.3261C52.5231 12.541 52.5858 12.7497 52.6871 12.9403C52.7885 13.1309 52.9265 13.2997 53.0932 13.4368C53.2598 13.574 53.452 13.6769 53.6585 13.7397L55.7814 14.3929V17.7203L50.1257 20.5481C49.9071 20.6576 49.7156 20.8146 49.5654 21.0076C49.4152 21.2006 49.31 21.4247 49.2575 21.6635C49.205 21.9023 49.2065 22.1499 49.2619 22.3881C49.3173 22.6263 49.4252 22.8491 49.5778 23.0402L55.392 30.3069L52.7758 34.2306C52.5961 34.5001 52.5002 34.8167 52.5002 35.1406C52.5002 35.4645 52.596 35.7811 52.7757 36.0506L55.147 39.6075L47.7872 44.5139L37.2555 33.9824L36.7396 33.6331L25.5396 28.8331L30.2361 20.7821C30.3083 20.6583 30.4117 20.5555 30.5361 20.4841C30.6604 20.4127 30.8013 20.3751 30.9447 20.3751ZM19.0725 61.031C19.3655 60.7965 19.5693 60.4686 19.6498 60.1021C19.7304 59.7355 19.6827 59.3524 19.5149 59.0167L16.8223 53.6315C16.7619 53.5107 16.7322 53.3769 16.736 53.2419C16.7397 53.1069 16.7767 52.9749 16.8437 52.8576L22.7526 42.5171C22.9311 42.2046 23.002 41.8421 22.9542 41.4855C22.9064 41.1288 22.7427 40.7977 22.4882 40.5433L20.5482 38.6032C20.42 38.475 20.3379 38.3081 20.3147 38.1284C20.2914 37.9487 20.3283 37.7663 20.4197 37.6098L23.6322 32.1027L28.0228 42.3474C28.1362 42.6122 28.3172 42.8425 28.5477 43.0154L33.5961 46.8029L26.7309 53.6682C26.4621 53.9368 26.2949 54.2903 26.2578 54.6684C26.2207 55.0465 26.316 55.4258 26.5275 55.7414C26.7389 56.0571 27.0534 56.2896 27.4172 56.3991C27.781 56.5087 28.1715 56.4886 28.5221 56.3423L47.1951 48.5618L51.3402 52.7068C51.6084 52.9751 51.9611 53.1421 52.3386 53.1795C52.716 53.2169 53.0947 53.1223 53.4102 52.9119L57.2678 50.3402L58.6935 54.1423C58.7418 54.2712 58.7569 54.4103 58.7374 54.5466C58.7179 54.683 58.6643 54.8122 58.5817 54.9224L54.8624 59.8819L48.562 55.1566C48.2777 54.9434 47.932 54.8282 47.5766 54.8282H42.6564C42.4402 54.8282 42.2262 54.871 42.0266 54.9541L22.3377 63.1578C21.9775 63.3079 21.6826 63.5814 21.5058 63.9292C21.3291 64.2771 21.2822 64.6766 21.3735 65.0559C21.4647 65.4353 21.6882 65.7697 22.0038 65.9991C22.3194 66.2285 22.7065 66.338 23.0955 66.3077L44.1977 64.6847L57.8507 67.4152C57.9595 67.4369 58.0628 67.4806 58.1543 67.5434C58.2458 67.6063 58.3235 67.687 58.3829 67.7808C58.4422 67.8746 58.482 67.9795 58.4996 68.0891C58.5173 68.1987 58.5125 68.3107 58.4856 68.4184L57.7821 71.2344H14.1393L12.201 67.3583C12.117 67.1904 12.0932 66.9988 12.1334 66.8154C12.1737 66.6321 12.2756 66.4681 12.4222 66.3509L19.0725 61.031ZM53.9324 63.2852L44.619 61.4227C44.513 61.4012 44.4052 61.3905 44.297 61.3907C44.2554 61.3907 44.2137 61.3923 44.1705 61.3955L33.0434 62.2519L42.9849 58.1094H47.032L53.9324 63.2852ZM0.504816 84.4225L8.53088 81.0781H63.657L71.683 84.4225C71.8581 84.4954 72.0024 84.6267 72.0916 84.7941C72.1807 84.9615 72.2091 85.1546 72.1719 85.3406C72.1347 85.5265 72.0342 85.6939 71.8876 85.8141C71.7409 85.9343 71.5571 86 71.3675 86H0.82034C0.630701 86 0.446917 85.9343 0.300259 85.8141C0.153601 85.6939 0.0531266 85.5265 0.0159331 85.3406C-0.0212604 85.1546 0.0071237 84.9615 0.096256 84.7941C0.185388 84.6267 0.329764 84.4954 0.504816 84.4225Z" fill="#5A1311"/>
</svg>
