<svg width="537" height="650" viewBox="0 0 537 650" fill="none" xmlns="http://www.w3.org/2000/svg">
<path d="M530.341 26.3897C477.916 -1.72189e-06 268.108 0 268.108 0C268.108 0 58.9365 -1.72189e-06 6.6562 26.3897C6.6562 26.3897 -8.32024 307.454 6.6562 430.404C8.10762 442.385 11.7326 454.085 17.1917 465.489C67.2479 571.279 268.116 650 268.116 650C268.116 650 474.876 569.199 521.646 461.336C526.095 451.239 529.041 440.941 530.341 430.404C545.324 307.454 530.341 26.3897 530.341 26.3897ZM52.3726 413.388C56.0914 409.618 74.7434 402.179 74.7434 402.179H56.0914C56.0914 402.179 56.0914 383.474 63.5363 383.474C63.5363 383.474 48.6032 376.035 33.6773 383.474C33.6773 383.474 33.6773 379.755 37.4467 376.035L29.9585 373.573C29.5686 366.177 29.2364 358.543 28.9403 350.664C38.8909 351.971 57.1096 354.629 59.8175 357.33C63.5363 361.1 56.0987 346.164 56.0987 346.164C56.0987 346.164 82.2388 361.1 93.4531 361.1C93.4531 361.1 89.6837 361.1 89.6837 353.611H97.1719L127.031 390.963V394.683C127.031 394.683 97.1719 424.597 89.6765 424.597C82.2388 424.597 63.5363 424.597 63.5363 424.597C63.5363 424.597 48.6032 417.108 52.3726 413.388ZM373.5 540.346C369.781 540.346 377.218 525.411 377.218 525.411C373.5 521.691 343.633 525.411 343.633 525.411C343.633 521.691 347.352 514.202 347.352 514.202C336.145 510.483 317.493 529.181 317.493 529.181C306.286 532.9 302.56 529.181 283.865 525.411C265.213 521.691 254.006 514.202 231.584 514.202C209.214 514.202 186.792 521.691 186.792 521.691C186.792 521.691 130.793 514.202 127.024 510.483C123.305 506.763 123.305 503.037 123.305 503.037C130.793 499.267 138.238 499.267 138.238 499.267C134.519 495.547 115.817 488.058 115.817 488.058C115.817 480.619 138.238 465.684 138.238 465.684C115.817 461.914 89.6765 476.892 89.6765 476.892L82.2388 473.123L78.52 461.914C82.2388 454.475 145.733 450.748 145.733 450.748C145.733 450.748 130.8 446.978 134.526 443.259C138.245 439.54 164.385 443.259 164.385 443.259L160.667 435.77C164.385 428.331 186.807 428.331 186.807 428.331C198.014 465.684 328.722 491.835 366.026 491.835C403.38 491.835 395.935 503.044 399.654 514.209C403.359 525.411 373.5 540.346 373.5 540.346ZM503.24 419.527C499.861 447.318 483.238 473.606 460.282 497.382C457.625 491.488 455.646 485.443 455.646 480.612C455.646 465.676 464.066 450.214 470.579 435.762C490.574 391.361 485.7 359.887 450.043 318.959C420.371 284.935 336.181 287.022 310.041 275.806C290.133 267.299 270.824 241.588 264.541 230.083C261.978 225.396 261.306 219.791 263.379 214.909C265.213 210.46 268.693 207.03 272.463 203.794C287.728 190.888 319.862 186.786 329.574 185.818C331.459 185.624 333.199 184.8 334.506 183.45L340.983 177.022C342.673 175.281 343.641 173.014 343.641 170.594V160.736C343.641 157.594 341.951 154.742 339.192 153.247L305.463 134.837C303.672 133.87 302.56 131.985 302.56 129.955V129.276C302.56 127.102 301.448 125.073 299.614 123.91L261.487 99.6511C261.487 99.6511 257.429 88.7746 260.57 79.4002C260.96 78.288 260.086 77.0819 258.88 76.9808C252.598 76.6414 236.704 77.0314 232.307 89.5907C231.729 91.1868 230.227 92.299 228.537 92.494C220.37 93.3606 198.05 96.2134 192.056 100.951C190.511 102.157 188.431 102.403 186.597 101.673C179.636 99.0661 165.194 95.0506 156.926 103.363C146.492 113.799 142.527 117.764 148.08 133.371C148.903 135.646 148.514 138.253 147.062 140.232C136.628 154.438 100.046 203.831 86.9542 231.137C83.8636 237.565 82.4121 244.672 82.506 251.822C82.701 263.76 81.3001 288.257 67.2841 293.869C67.2841 293.869 55.8315 302.42 27.951 309.577C26.5213 193.597 33.764 57.221 33.764 57.221C80.5852 33.6407 268.159 33.6407 268.159 33.6407C268.159 33.6407 456.267 33.6407 503.233 57.221C503.24 57.221 516.714 309.245 503.24 419.527Z" fill="#AC571B"/>
</svg>
