<svg width="360" height="221" viewBox="0 0 360 221" fill="none" xmlns="http://www.w3.org/2000/svg">
<mask id="mask0" mask-type="alpha" maskUnits="userSpaceOnUse" x="0" y="0" width="360" height="221">
<path d="M0 0H360C360 0 284 146.79 181 160.245C88.2703 172.359 0 221 0 221V0Z" fill="black"/>
</mask>
<g mask="url(#mask0)">
<rect width="360" height="271" fill="#F09800"/>
<path d="M355.201 -31.9994C317.42 -51 166.218 -51 166.218 -51C166.218 -51 15.4738 -51 -22.2031 -31.9994C-22.2031 -31.9994 -32.9962 170.367 -22.2031 258.891C-21.1571 267.517 -18.5447 275.941 -14.6105 284.152C21.4636 360.321 166.223 417 166.223 417C166.223 417 315.229 358.823 348.935 281.162C352.141 273.892 354.264 266.477 355.201 258.891C365.999 170.367 355.201 -31.9994 355.201 -31.9994ZM10.7434 246.639C13.4234 243.925 26.8654 238.569 26.8654 238.569H13.4234C13.4234 238.569 13.4235 225.101 18.7888 225.101C18.7888 225.101 8.02691 219.745 -2.72974 225.101C-2.72974 225.101 -2.72974 222.423 -0.0132599 219.745L-5.4098 217.972C-5.69082 212.647 -5.93019 207.151 -6.14356 201.478C1.02754 202.419 14.1572 204.333 16.1087 206.278C18.7888 208.992 13.4286 198.238 13.4286 198.238C13.4286 198.238 32.2671 208.992 40.3489 208.992C40.3489 208.992 37.6324 208.992 37.6324 203.6H43.0289L64.5475 230.494V233.172C64.5475 233.172 43.0289 254.71 37.6272 254.71C32.2671 254.71 18.7888 254.71 18.7888 254.71C18.7888 254.71 8.0269 249.317 10.7434 246.639ZM242.17 338.049C239.49 338.049 244.85 327.296 244.85 327.296C242.17 324.618 220.646 327.296 220.646 327.296C220.646 324.618 223.326 319.225 223.326 319.225C215.25 316.547 201.808 330.01 201.808 330.01C193.731 332.688 191.046 330.01 177.573 327.296C164.131 324.618 156.054 319.225 139.896 319.225C123.774 319.225 107.616 324.618 107.616 324.618C107.616 324.618 67.2587 319.225 64.5423 316.548C61.8622 313.87 61.8622 311.186 61.8622 311.186C67.2587 308.472 72.624 308.472 72.624 308.472C69.944 305.794 56.4657 300.402 56.4657 300.402C56.4657 295.046 72.624 284.292 72.624 284.292C56.4657 281.578 37.6272 292.363 37.6272 292.363L32.2671 289.648L29.587 281.578C32.2671 276.222 78.0258 273.539 78.0258 273.539C78.0258 273.539 67.2639 270.824 69.9492 268.146C72.6292 265.468 91.4677 268.146 91.4677 268.146L88.7876 262.754C91.4677 257.398 107.626 257.398 107.626 257.398C115.703 284.292 209.9 303.121 236.784 303.121C263.704 303.121 258.339 311.192 261.019 319.231C263.689 327.296 242.17 338.049 242.17 338.049ZM335.67 251.059C333.235 271.069 321.255 289.997 304.712 307.115C302.797 302.872 301.371 298.519 301.371 295.041C301.371 284.287 307.439 273.154 312.133 262.749C326.542 230.78 323.03 208.118 297.332 178.65C275.949 154.153 215.276 155.656 196.437 147.581C182.09 141.455 168.175 122.943 163.647 114.66C161.8 111.285 161.316 107.25 162.809 103.735C164.131 100.532 166.639 98.0615 169.356 95.732C180.357 86.4397 203.515 83.4861 210.514 82.7893C211.872 82.6489 213.127 82.0561 214.069 81.0837L218.737 76.4558C219.954 75.2026 220.652 73.5698 220.652 71.8278V64.7299C220.652 62.4679 219.434 60.414 217.446 59.3376L193.138 46.0829C191.847 45.3861 191.046 44.0289 191.046 42.5678V42.079C191.046 40.5138 190.245 39.0526 188.923 38.2154L161.446 20.7488C161.446 20.7488 158.521 12.9177 160.785 6.16816C161.066 5.36737 160.436 4.49899 159.567 4.42619C155.04 4.18179 143.586 4.46259 140.416 13.5053C140 14.6545 138.918 15.4553 137.7 15.5957C131.814 16.2197 115.729 18.2736 111.409 21.6848C110.296 22.5532 108.797 22.73 107.475 22.2048C102.459 20.3276 92.0506 17.4364 86.092 23.4216C78.5722 30.9355 75.7152 33.7903 79.7171 45.0273C80.3103 46.6653 80.0293 48.5425 78.9833 49.9673C71.4636 60.1956 45.1001 95.7579 35.6653 115.419C33.438 120.047 32.392 125.164 32.4596 130.312C32.6002 138.907 31.5906 156.545 21.4896 160.586C21.4896 160.586 13.2361 166.742 -6.85651 171.896C-7.8869 88.3896 -2.6673 -9.80086 -2.6673 -9.80086C31.0754 -26.7787 166.254 -26.7787 166.254 -26.7787C166.254 -26.7787 301.818 -26.7787 335.665 -9.80086C335.67 -9.80086 345.381 171.656 335.67 251.059Z" fill="#FFC737"/>
</g>
</svg>
