<svg width="42" height="55" viewBox="0 0 42 55" fill="none" xmlns="http://www.w3.org/2000/svg">
<path d="M29.8906 42.2715C29.5301 42.2715 29.1696 42.2114 28.8691 42.0912L25.9849 41.1899L23.7016 43.2929C23.6415 43.353 23.5214 43.4131 23.4613 43.4732L27.0665 54.6494C27.1867 55.01 27.7275 55.1301 27.9678 54.8297L30.6117 51.4648C30.7318 51.2846 30.9722 51.2245 31.1525 51.2846L35.2384 52.4863C35.659 52.6065 36.0195 52.246 35.8393 51.8253L32.4143 41.25C31.7533 41.8508 30.852 42.2715 29.8906 42.2715Z" fill="#FFB156"/>
<path d="M7.41794 52.4262L11.5039 51.2245C11.6841 51.1644 11.9245 51.2245 12.0447 51.4047L14.6885 54.7696C14.9289 55.0701 15.4696 55.01 15.5898 54.5894L19.1951 43.4131C19.135 43.353 19.0148 43.2929 18.9547 43.2328L16.7315 41.1899L13.8473 42.0912C13.4868 42.2114 13.1863 42.2715 12.8258 42.2715C11.8644 42.2715 10.9631 41.8508 10.3021 41.1899L6.87715 51.7653C6.6368 52.1859 6.99733 52.5464 7.41794 52.4262Z" fill="#FFB156"/>
<path d="M12.3108 38.8497L12.3031 38.8267L12.294 38.8042L10.8519 35.2591L10.841 35.2322L10.828 35.2063C10.5512 34.6527 10.1004 34.3142 9.65132 34.0897L9.54781 34.038L9.43353 34.0198L5.64802 33.4189L5.63068 33.4162L5.61323 33.4142C5.56939 33.4094 5.50269 33.3802 5.4442 33.3057C5.38545 33.231 5.36875 33.1529 5.37454 33.1008L5.3765 33.0832L5.37762 33.0655L5.61797 29.28L5.61948 29.2563V29.2325C5.61948 28.6271 5.32189 28.0571 4.85731 27.6855L4.83703 27.6692L4.81569 27.6545L1.69747 25.4957C1.65327 25.4628 1.59821 25.39 1.57477 25.2874C1.55191 25.1874 1.57023 25.1107 1.59978 25.0634L1.6088 25.049L1.61716 25.0341L3.47987 21.7293L3.48901 21.7131L3.49733 21.6965C3.78316 21.1248 3.78316 20.5157 3.49733 19.9441L3.48901 19.9274L3.47987 19.9112L1.61716 16.6064L1.60881 16.5916L1.59979 16.5772C1.55521 16.5058 1.53986 16.4164 1.55653 16.3331C1.57268 16.2523 1.61348 16.1987 1.66171 16.1686L1.67666 16.1593L1.69115 16.1492L4.81569 13.9861L4.83703 13.9713L4.85731 13.9551C5.3219 13.5834 5.61948 13.0134 5.61948 12.408V12.3843L5.61797 12.3605L5.37762 8.575L5.3765 8.55731L5.37454 8.5397C5.36875 8.48761 5.38545 8.40957 5.4442 8.3348C5.50268 8.26036 5.5694 8.23114 5.61327 8.22627L5.6307 8.22433L5.64802 8.22159L9.43352 7.62072L9.43352 7.62075L9.43925 7.61979C9.98961 7.52806 10.622 7.15663 10.8596 6.48265L12.294 2.95648L12.3031 2.93403L12.3108 2.91105C12.3601 2.76322 12.5362 2.67516 12.684 2.72444L12.6964 2.72857L12.7089 2.73227L16.3635 3.81066C17.0385 4.02933 17.6553 3.77683 18.0765 3.43979L18.0929 3.42673L18.1084 3.41277L20.9926 0.829003L21.008 0.815274L21.0225 0.800725C21.039 0.784193 21.0915 0.75 21.1907 0.75C21.2851 0.75 21.3756 0.78245 21.4396 0.834345L24.2419 3.39812C24.6702 3.81589 25.3689 4.01554 26.0028 3.81071L29.6275 2.74111C29.7359 2.72137 29.8433 2.73726 29.9231 2.77464C30.0007 2.81105 30.0382 2.85884 30.0556 2.91104L30.0609 2.92681L30.0668 2.94233L31.4438 6.53444C31.6791 7.21367 32.3145 7.58778 32.8671 7.6799L32.8728 7.68081L36.6583 8.28167L36.6756 8.28442L36.693 8.28636C36.7369 8.29123 36.8036 8.32045 36.8621 8.39489C36.9209 8.46966 36.9376 8.5477 36.9318 8.59979L36.9298 8.6174L36.9287 8.63509L36.6883 12.4206L36.6868 12.4443V12.4681C36.6868 13.0735 36.9844 13.6435 37.449 14.0152L37.4693 14.0314L37.4906 14.0462L40.6088 16.2049C40.653 16.2378 40.7081 16.3107 40.7315 16.4132C40.7544 16.5133 40.7361 16.5899 40.7065 16.6372L40.6975 16.6517L40.6891 16.6665L38.8264 19.9713L38.8173 19.9875L38.809 20.0041C38.5231 20.5758 38.5232 21.1849 38.809 21.7565L38.8173 21.7732L38.8264 21.7894L40.6891 25.0942L40.6975 25.109L40.7065 25.1234C40.7511 25.1948 40.7664 25.2842 40.7498 25.3675C40.7336 25.4483 40.6928 25.5019 40.6446 25.532L40.6297 25.5413L40.6152 25.5514L37.4906 27.7145L37.4693 27.7293L37.449 27.7455C36.9844 28.1172 36.6868 28.6872 36.6868 29.2926V29.316L36.6883 29.3394L36.9286 33.185L36.9298 33.203L36.9318 33.221C36.9376 33.2731 36.9209 33.3511 36.8621 33.4259C36.8036 33.5004 36.7369 33.5296 36.6931 33.5344L36.6756 33.5364L36.6583 33.5391L32.8728 34.14L32.8671 34.1409C32.3167 34.2326 31.6843 34.6041 31.4467 35.2781L30.0123 38.8042L30.0032 38.8267L29.9955 38.8497C29.9463 38.9975 29.7701 39.0856 29.6223 39.0363L29.6099 39.0322L29.5974 39.0285L25.9428 37.95C25.2677 37.7313 24.651 37.9839 24.2298 38.3209L24.2104 38.3364L24.192 38.3532L21.3679 40.937L21.3557 40.9482L21.3439 40.96C21.3274 40.9765 21.2749 41.0107 21.1757 41.0107C21.0813 41.0107 20.9907 40.9783 20.9268 40.9264L18.1246 38.3626C17.6963 37.9449 16.9976 37.7451 16.3636 37.95L12.7389 39.0196C12.6306 39.0393 12.5231 39.0235 12.4434 38.9861C12.3657 38.9497 12.3282 38.9019 12.3108 38.8497Z" fill="#5A1311" stroke="#FFB156" stroke-width="1.5"/>
<path d="M16.8922 16.442L16.894 27.2315C16.894 27.6558 17.2495 28 17.688 28H25.5487C25.9872 28 26.3427 27.656 26.3427 27.2315L26.281 16.442H16.8922ZM19.5795 25.6047C19.5795 25.7508 19.461 25.8693 19.3148 25.8693C19.1687 25.8693 19.0502 25.7508 19.0502 25.6047V18.6703C19.0502 18.5242 19.1687 18.4057 19.3148 18.4057C19.461 18.4057 19.5795 18.5242 19.5795 18.6703V25.6047ZM21.8822 26.456C21.8822 26.6022 21.7637 26.7207 21.6175 26.7207C21.4713 26.7207 21.3528 26.6022 21.3528 26.456V17.8188C21.3528 17.6727 21.4713 17.5542 21.6175 17.5542C21.7637 17.5542 21.8822 17.6727 21.8822 17.8188V26.456ZM24.1848 25.6047C24.1848 25.7508 24.0663 25.8693 23.9202 25.8693C23.774 25.8693 23.6555 25.7508 23.6555 25.6047V18.6703C23.6555 18.5242 23.774 18.4057 23.9202 18.4057C24.0663 18.4057 24.1848 18.5242 24.1848 18.6703V25.6047ZM27.0822 14.9585H23.5833V14.1468C23.5833 13.8488 23.4793 13.5665 23.2905 13.3522C23.0905 13.1252 22.8208 13 22.5313 13H20.7037C20.4142 13 20.1445 13.1252 19.9445 13.3522C19.7557 13.5667 19.6517 13.8488 19.6517 14.1468V14.9585H16.1528C16.0553 14.9585 15.9672 14.998 15.9033 15.0618C15.8395 15.1257 15.8 15.214 15.8 15.3113V17.3935C15.8 17.5883 15.958 17.7463 16.1528 17.7463C16.3478 17.7463 16.5057 17.5883 16.5057 17.3935V16.0613H26.7293V17.3935C26.7293 17.5883 26.8873 17.7463 27.0822 17.7463C27.277 17.7463 27.435 17.5883 27.435 17.3935V15.3115C27.4352 15.1167 27.2772 14.9585 27.0822 14.9585ZM22.8775 14.9585H20.3575V14.1468C20.3575 13.9077 20.516 13.7057 20.7037 13.7057H22.5313C22.719 13.7057 22.8775 13.9077 22.8775 14.1468V14.9585Z" fill="#FFB156"/>
</svg>
