<svg width="31"
     height="30"
     viewBox="0 0 31 30"
     fill="none"
     xmlns="http://www.w3.org/2000/svg">
  <path d="M18.9732 5.66135H2.6177C1.92344 5.66135 1.25762 5.36511 0.766707 4.8378C0.275793 4.3105 0 3.59532 0 2.84959C0 2.10387 0.275793 1.38869 0.766707 0.861384C1.25762 0.334079 1.92344 0.0378418 2.6177 0.0378418H18.9732C19.6675 0.0378418 20.3333 0.334079 20.8242 0.861384C21.3151 1.38869 21.5909 2.10387 21.5909 2.84959C21.5909 3.59532 21.3151 4.3105 20.8242 4.8378C20.3333 5.36511 19.6675 5.66135 18.9732 5.66135V5.66135Z"
        fill="#FFB156"/>
  <path d="M28.3823 17.7683H14.4523C13.7581 17.7683 13.0922 17.472 12.6013 16.9447C12.1104 16.4174 11.8346 15.7023 11.8346 14.9565C11.8346 14.2108 12.1104 13.4956 12.6013 12.9683C13.0922 12.441 13.7581 12.1448 14.4523 12.1448H28.3823C29.0765 12.1448 29.7424 12.441 30.2333 12.9683C30.7242 13.4956 31 14.2108 31 14.9565C31 15.7023 30.7242 16.4174 30.2333 16.9447C29.7424 17.472 29.0765 17.7683 28.3823 17.7683V17.7683Z"
        fill="#FFB156"/>
  <path d="M7.43515 17.7683H2.6177C1.92344 17.7683 1.25762 17.472 0.766707 16.9447C0.275793 16.4174 0 15.7023 0 14.9565C0 14.2108 0.275793 13.4956 0.766707 12.9683C1.25762 12.441 1.92344 12.1448 2.6177 12.1448H7.43515C7.77891 12.1448 8.1193 12.2175 8.4369 12.3588C8.75449 12.5001 9.04307 12.7072 9.28614 12.9683C9.52922 13.2294 9.72204 13.5394 9.85359 13.8805C9.98514 14.2217 10.0528 14.5873 10.0528 14.9565C10.0528 15.3258 9.98514 15.6914 9.85359 16.0325C9.72204 16.3737 9.52922 16.6836 9.28614 16.9447C9.04307 17.2058 8.75449 17.4129 8.4369 17.5542C8.1193 17.6956 7.77891 17.7683 7.43515 17.7683V17.7683Z"
        fill="#FFB156"/>
  <path d="M28.3823 29.8752H21.6229C20.9286 29.8752 20.2628 29.579 19.7719 29.0517C19.281 28.5244 19.0052 27.8092 19.0052 27.0635C19.0052 26.3177 19.281 25.6026 19.7719 25.0753C20.2628 24.5479 20.9286 24.2517 21.6229 24.2517H28.3823C29.0766 24.2517 29.7424 24.5479 30.2333 25.0753C30.7242 25.6026 31 26.3177 31 27.0635C31 27.8092 30.7242 28.5244 30.2333 29.0517C29.7424 29.579 29.0766 29.8752 28.3823 29.8752V29.8752Z"
        fill="#FFB156"/>
  <path d="M14.6087 29.8752H2.6177C1.92344 29.8752 1.25762 29.579 0.766707 29.0517C0.275792 28.5244 0 27.8092 0 27.0635C0 26.3177 0.275792 25.6026 0.766707 25.0753C1.25762 24.5479 1.92344 24.2517 2.6177 24.2517H14.6087C15.3029 24.2517 15.9688 24.5479 16.4597 25.0753C16.9506 25.6026 17.2264 26.3177 17.2264 27.0635C17.2264 27.8092 16.9506 28.5244 16.4597 29.0517C15.9688 29.579 15.3029 29.8752 14.6087 29.8752V29.8752Z"
        fill="#FFB156"/>
</svg>
