<svg width="42" height="55" viewBox="0 0 42 55" fill="none" xmlns="http://www.w3.org/2000/svg">
<path d="M29.6906 42.2715C29.3301 42.2715 28.9696 42.2114 28.6691 42.0912L25.7849 41.1899L23.5016 43.2929C23.4415 43.353 23.3214 43.4131 23.2613 43.4732L26.8665 54.6494C26.9867 55.01 27.5275 55.1301 27.7678 54.8297L30.4117 51.4648C30.5318 51.2846 30.7722 51.2245 30.9525 51.2846L35.0384 52.4863C35.459 52.6065 35.8195 52.246 35.6393 51.8253L32.2143 41.25C31.5533 41.8508 30.652 42.2715 29.6906 42.2715Z" fill="#AAAAAA"/>
<path d="M7.21794 52.4262L11.3039 51.2245C11.4841 51.1644 11.7245 51.2245 11.8447 51.4047L14.4885 54.7696C14.7289 55.0701 15.2696 55.01 15.3898 54.5894L18.9951 43.4131C18.935 43.353 18.8148 43.2929 18.7547 43.2328L16.5315 41.1899L13.6473 42.0912C13.2868 42.2114 12.9863 42.2715 12.6258 42.2715C11.6644 42.2715 10.7631 41.8508 10.1021 41.1899L6.67716 51.7653C6.43681 52.1859 6.79733 52.5464 7.21794 52.4262Z" fill="#AAAAAA"/>
<path d="M12.1108 38.8497L12.1031 38.8267L12.094 38.8042L10.6519 35.2591L10.641 35.2322L10.628 35.2063C10.3512 34.6527 9.90038 34.3142 9.45132 34.0897L9.34782 34.038L9.23353 34.0198L5.44802 33.4189L5.43068 33.4162L5.41323 33.4142C5.36939 33.4094 5.30269 33.3802 5.24421 33.3057C5.18545 33.231 5.16876 33.1529 5.17454 33.1008L5.1765 33.0832L5.17762 33.0655L5.41797 29.28L5.41948 29.2563V29.2325C5.41948 28.6271 5.12189 28.0571 4.65731 27.6855L4.63704 27.6692L4.61569 27.6545L1.49747 25.4957C1.45327 25.4628 1.39821 25.39 1.37477 25.2874C1.35191 25.1874 1.37023 25.1107 1.39978 25.0634L1.40881 25.049L1.41717 25.0341L3.27988 21.7293L3.28901 21.7131L3.29734 21.6965C3.58317 21.1248 3.58317 20.5157 3.29734 19.9441L3.28901 19.9274L3.27988 19.9112L1.41717 16.6064L1.40881 16.5916L1.39979 16.5772C1.35521 16.5058 1.33986 16.4164 1.35653 16.3331C1.37268 16.2523 1.41348 16.1987 1.46172 16.1686L1.47666 16.1593L1.49115 16.1492L4.61569 13.9861L4.63704 13.9713L4.65731 13.9551C5.1219 13.5834 5.41948 13.0134 5.41948 12.408V12.3843L5.41797 12.3605L5.17762 8.575L5.1765 8.55731L5.17454 8.5397C5.16876 8.48761 5.18545 8.40957 5.2442 8.3348C5.30269 8.26036 5.3694 8.23114 5.41327 8.22627L5.4307 8.22433L5.44802 8.22159L9.23352 7.62072L9.23353 7.62075L9.23925 7.61979C9.78962 7.52806 10.422 7.15663 10.6596 6.48265L12.094 2.95648L12.1031 2.93403L12.1108 2.91105C12.1601 2.76322 12.3362 2.67516 12.484 2.72444L12.4964 2.72857L12.5089 2.73227L16.1635 3.81066C16.8386 4.02933 17.4553 3.77683 17.8765 3.43979L17.8929 3.42673L17.9084 3.41277L20.7926 0.829003L20.808 0.815274L20.8225 0.800725C20.839 0.784193 20.8915 0.75 20.9907 0.75C21.0851 0.75 21.1756 0.78245 21.2396 0.834345L24.0419 3.39812C24.4702 3.81589 25.1689 4.01554 25.8028 3.81071L29.4275 2.74111C29.5359 2.72137 29.6433 2.73726 29.7231 2.77464C29.8007 2.81105 29.8382 2.85884 29.8556 2.91104L29.8609 2.92681L29.8668 2.94233L31.2438 6.53444C31.4791 7.21367 32.1145 7.58778 32.6671 7.6799L32.6728 7.68081L36.4583 8.28167L36.4756 8.28442L36.493 8.28636C36.5369 8.29123 36.6036 8.32045 36.6621 8.39489C36.7209 8.46966 36.7376 8.5477 36.7318 8.59979L36.7298 8.6174L36.7287 8.63509L36.4883 12.4206L36.4868 12.4443V12.4681C36.4868 13.0735 36.7844 13.6435 37.249 14.0152L37.2693 14.0314L37.2906 14.0462L40.4088 16.2049C40.453 16.2378 40.5081 16.3107 40.5315 16.4132C40.5544 16.5133 40.5361 16.5899 40.5065 16.6372L40.4975 16.6517L40.4892 16.6665L38.6264 19.9713L38.6173 19.9875L38.609 20.0041C38.3231 20.5758 38.3232 21.1849 38.609 21.7565L38.6173 21.7732L38.6264 21.7894L40.4892 25.0942L40.4975 25.109L40.5065 25.1234C40.5511 25.1948 40.5665 25.2842 40.5498 25.3675C40.5336 25.4483 40.4928 25.5019 40.4446 25.532L40.4297 25.5413L40.4152 25.5514L37.2906 27.7145L37.2693 27.7293L37.249 27.7455C36.7844 28.1172 36.4868 28.6872 36.4868 29.2926V29.316L36.4883 29.3394L36.7286 33.185L36.7298 33.203L36.7318 33.221C36.7376 33.2731 36.7209 33.3511 36.6621 33.4259C36.6036 33.5004 36.5369 33.5296 36.4931 33.5344L36.4756 33.5364L36.4583 33.5391L32.6728 34.14L32.6671 34.1409C32.1167 34.2326 31.4843 34.6041 31.2467 35.2781L29.8123 38.8042L29.8032 38.8267L29.7955 38.8497C29.7463 38.9975 29.5702 39.0856 29.4223 39.0363L29.4099 39.0322L29.3974 39.0285L25.7428 37.95C25.0677 37.7313 24.451 37.9839 24.0298 38.3209L24.0104 38.3364L23.9921 38.3532L21.1679 40.937L21.1557 40.9482L21.1439 40.96C21.1274 40.9765 21.0749 41.0107 20.9757 41.0107C20.8813 41.0107 20.7907 40.9783 20.7268 40.9264L17.9246 38.3626C17.4963 37.9449 16.7976 37.7451 16.1636 37.95L12.5389 39.0196C12.4306 39.0393 12.3231 39.0235 12.2434 38.9861C12.1657 38.9497 12.1282 38.9019 12.1108 38.8497Z" fill="#3C3C3C" stroke="#AAAAAA" stroke-width="1.5"/>
</svg>
