<svg width="41" height="55" viewBox="0 0 41 55" fill="none" xmlns="http://www.w3.org/2000/svg">
<path d="M29.0906 42.2715C28.7301 42.2715 28.3696 42.2114 28.0691 42.0912L25.1849 41.1899L22.9016 43.2929C22.8415 43.353 22.7213 43.4131 22.6613 43.4732L26.2665 54.6494C26.3867 55.01 26.9275 55.1301 27.1678 54.8297L29.8117 51.4648C29.9318 51.2846 30.1722 51.2245 30.3524 51.2846L34.4384 52.4863C34.859 52.6065 35.2195 52.246 35.0393 51.8253L31.6143 41.25C30.9533 41.8508 30.052 42.2715 29.0906 42.2715Z" fill="#FFB156"/>
<path d="M6.61794 52.4262L10.7039 51.2245C10.8841 51.1644 11.1245 51.2245 11.2447 51.4047L13.8885 54.7696C14.1289 55.0701 14.6696 55.01 14.7898 54.5894L18.3951 43.4131C18.335 43.353 18.2148 43.2929 18.1547 43.2328L15.9315 41.1899L13.0473 42.0912C12.6868 42.2114 12.3863 42.2715 12.0258 42.2715C11.0644 42.2715 10.1631 41.8508 9.50213 41.1899L6.07715 51.7653C5.8368 52.1859 6.19732 52.5464 6.61794 52.4262Z" fill="#FFB156"/>
<path d="M11.5108 38.8497L11.5031 38.8267L11.494 38.8042L10.0519 35.2591L10.041 35.2322L10.028 35.2063C9.75119 34.6527 9.30037 34.3142 8.85132 34.0897L8.74781 34.038L8.63352 34.0198L4.84802 33.4189L4.83068 33.4162L4.81322 33.4142C4.76939 33.4094 4.70268 33.3802 4.6442 33.3057C4.58544 33.231 4.56875 33.1529 4.57454 33.1008L4.5765 33.0832L4.57762 33.0655L4.81797 29.28L4.81947 29.2563V29.2325C4.81947 28.6271 4.52189 28.0571 4.05731 27.6855L4.03703 27.6692L4.01568 27.6545L0.897466 25.4957C0.853265 25.4628 0.798207 25.39 0.774766 25.2874C0.751902 25.1874 0.770222 25.1107 0.799777 25.0634L0.808801 25.049L0.817161 25.0341L2.67987 21.7293L2.68901 21.7131L2.69733 21.6965C2.98316 21.1248 2.98316 20.5157 2.69733 19.9441L2.68901 19.9274L2.67987 19.9112L0.817161 16.6064L0.808807 16.5916L0.799789 16.5772C0.755209 16.5058 0.739857 16.4164 0.756524 16.3331C0.772678 16.2523 0.813476 16.1987 0.861712 16.1686L0.876655 16.1593L0.891142 16.1492L4.01568 13.9861L4.03703 13.9713L4.05731 13.9551C4.5219 13.5834 4.81947 13.0134 4.81947 12.408V12.3843L4.81797 12.3605L4.57762 8.575L4.5765 8.55731L4.57454 8.5397C4.56875 8.48761 4.58544 8.40957 4.6442 8.3348C4.70268 8.26036 4.7694 8.23114 4.81327 8.22627L4.83069 8.22433L4.84801 8.22159L8.63352 7.62072L8.63352 7.62075L8.63925 7.61979C9.18961 7.52806 9.82198 7.15663 10.0596 6.48265L11.494 2.95648L11.5031 2.93403L11.5108 2.91105C11.56 2.76322 11.7362 2.67516 11.884 2.72444L11.8964 2.72857L11.9089 2.73227L15.5635 3.81066C16.2385 4.02933 16.8553 3.77683 17.2765 3.43979L17.2929 3.42673L17.3084 3.41277L20.1926 0.829003L20.208 0.815274L20.2225 0.800725C20.239 0.784193 20.2915 0.75 20.3907 0.75C20.4851 0.75 20.5756 0.78245 20.6396 0.834345L23.4419 3.39812C23.8702 3.81589 24.5689 4.01554 25.2028 3.81071L28.8275 2.74111C28.9359 2.72137 29.0433 2.73726 29.1231 2.77464C29.2007 2.81105 29.2382 2.85884 29.2556 2.91104L29.2609 2.92681L29.2668 2.94233L30.6438 6.53444C30.8791 7.21367 31.5144 7.58778 32.0671 7.6799L32.0728 7.68081L35.8583 8.28167L35.8756 8.28442L35.893 8.28636C35.9369 8.29123 36.0036 8.32045 36.0621 8.39489C36.1209 8.46966 36.1376 8.5477 36.1318 8.59979L36.1298 8.6174L36.1287 8.63509L35.8883 12.4206L35.8868 12.4443V12.4681C35.8868 13.0735 36.1844 13.6435 36.649 14.0152L36.6693 14.0314L36.6906 14.0462L39.8088 16.2049C39.853 16.2378 39.9081 16.3107 39.9315 16.4132C39.9544 16.5133 39.9361 16.5899 39.9065 16.6372L39.8975 16.6517L39.8891 16.6665L38.0264 19.9713L38.0173 19.9875L38.009 20.0041C37.7231 20.5758 37.7232 21.1849 38.009 21.7565L38.0173 21.7732L38.0264 21.7894L39.8891 25.0942L39.8975 25.109L39.9065 25.1234C39.9511 25.1948 39.9664 25.2842 39.9498 25.3675C39.9336 25.4483 39.8928 25.5019 39.8446 25.532L39.8297 25.5413L39.8152 25.5514L36.6906 27.7145L36.6693 27.7293L36.649 27.7455C36.1844 28.1172 35.8868 28.6872 35.8868 29.2926V29.316L35.8883 29.3394L36.1286 33.185L36.1298 33.203L36.1318 33.221C36.1376 33.2731 36.1209 33.3511 36.0621 33.4259C36.0036 33.5004 35.9369 33.5296 35.8931 33.5344L35.8756 33.5364L35.8583 33.5391L32.0728 34.14L32.0671 34.1409C31.5167 34.2326 30.8843 34.6041 30.6467 35.2781L29.2123 38.8042L29.2032 38.8267L29.1955 38.8497C29.1463 38.9975 28.9701 39.0856 28.8223 39.0363L28.8099 39.0322L28.7974 39.0285L25.1428 37.95C24.4677 37.7313 23.851 37.9839 23.4298 38.3209L23.4104 38.3364L23.392 38.3532L20.5679 40.937L20.5557 40.9482L20.5439 40.96C20.5274 40.9765 20.4749 41.0107 20.3757 41.0107C20.2813 41.0107 20.1907 40.9783 20.1268 40.9264L17.3246 38.3626C16.8963 37.9449 16.1976 37.7451 15.5636 37.95L11.9389 39.0196C11.8306 39.0393 11.7231 39.0235 11.6433 38.9861C11.5657 38.9497 11.5282 38.9019 11.5108 38.8497Z" fill="#5A1311" stroke="#FFB156" stroke-width="1.5"/>
<path d="M29.7023 19.8731C29.6449 19.112 29.3376 18.5227 29.0246 18.5322C28.8285 18.5578 28.6531 18.8449 28.5887 19.3032L23.8759 19.9228L24.8442 18.224C25.0196 17.9378 24.9827 17.5256 24.7181 17.3688L19.3633 14.2006C19.0985 14.044 18.7102 14.205 18.5351 14.4913L18.1313 15.1219C18.0526 14.4544 17.7512 13.7969 17.0084 13.3585C15.8959 12.6996 14.7222 12.9632 14.0682 14.0318C12.7704 16.121 13.3493 19.4796 13.6531 21.5768L11.8091 23.9986C11.6328 24.2849 11.6855 24.6713 11.9503 24.8278L18.8436 27.9301C19.1084 28.0869 19.486 27.9725 19.6781 27.6601L22.1682 22.9758L28.6298 20.4458C28.7356 20.951 28.9785 21.2912 29.2228 21.2757C29.5355 21.2654 29.7376 20.6399 29.7023 19.8731ZM17.3914 16.2105L14.1425 20.8366C13.731 19.2091 13.6512 15.95 14.6239 14.3607C15.0869 13.6052 15.8566 13.4393 16.6787 13.9257C17.633 14.4899 17.562 15.5485 17.3914 16.2105Z" fill="#FFB156"/>
</svg>
