<svg width="36"
     height="36"
     viewBox="0 0 36 36"
     xmlns="http://www.w3.org/2000/svg">
  <path fill-rule="evenodd"
        clip-rule="evenodd"
        d="M28.835 16.0807H8.23185C7.92388 16.0693 7.62727 16.2005 7.42627 16.4353C7.22527 16.6702 7.14423 16.9843 7.20259 17.2872L7.84933 21.2923H7.85095C7.98386 21.974 8.57064 22.4729 9.26601 22.4939H9.51563L10.6989 33.7833H10.6973C10.8464 34.7598 11.6715 35.4902 12.6602 35.521H24.2365C25.1442 35.5048 25.9303 34.8878 26.1621 34.0116V33.9792L27.4977 22.5166H27.6679V22.515C28.3828 22.5036 28.9922 21.9967 29.1332 21.2955L29.8594 17.2823C29.9275 16.9795 29.8497 16.6621 29.6487 16.4256C29.4461 16.1892 29.1446 16.0612 28.835 16.0807L28.835 16.0807Z"/>
  <path fill-rule="evenodd"
        clip-rule="evenodd"
        d="M29.1658 2.39075C28.1413 2.44419 24.3029 2.80534 21.8004 5.2929C19.2978 7.78046 18.8633 11.6237 18.792 12.6569C19.8164 12.6035 23.6548 12.2423 26.1574 9.75475C28.66 7.26557 29.096 3.41935 29.1658 2.39075Z"/>
  <path fill-rule="evenodd"
        clip-rule="evenodd"
        d="M16.0998 10.5923C16.0122 9.55579 15.5438 5.90364 13.1205 3.39535C10.6973 0.886736 7.03738 0.26808 6 0.140137C6.08753 1.17662 6.55595 4.82877 8.97922 7.33706C11.4024 9.84568 15.0624 10.4627 16.0998 10.5923Z"/>
</svg>
