<svg width="36"
     height="36"
     viewBox="0 0 36 36"
     xmlns="http://www.w3.org/2000/svg">
  <mask id="mask0"
        style="mask-type:alpha"
        maskUnits="userSpaceOnUse"
        x="3"
        y="1"
        width="31"
        height="35">
    <path fill-rule="evenodd"
          clip-rule="evenodd"
          d="M4.46622 1C3.6577 1 3 1.66247 3 2.4759V2.4759V27.1973C3 28.0111 3.6577 28.6732 4.46622 28.6732V28.6732H6.56416V33.9514C6.56416 34.2019 6.7112 34.4292 6.94035 34.5313V34.5313L8.07269 35.0318C8.34122 35.1507 8.64745 35.1507 8.91555 35.0318V35.0318L10.9724 34.1227L13.031 35.0318C13.2995 35.1507 13.6054 35.1507 13.8722 35.0318V35.0318L15.9308 34.1227L17.9893 35.0318C18.2562 35.1507 18.5637 35.1507 18.8305 35.0318V35.0318L20.8891 34.1227L22.9481 35.0318C23.2145 35.1507 23.522 35.1507 23.7889 35.0318V35.0318L25.8491 34.1227L27.911 35.0318C28.0455 35.0908 28.1888 35.1208 28.3316 35.1208V35.1208C28.4757 35.1208 28.6181 35.0908 28.7522 35.0318V35.0318L29.8896 34.5292C30.1187 34.4292 30.2658 34.2019 30.2658 33.9498V33.9498V28.6719H32.3633C33.1722 28.6719 33.8295 28.0095 33.8295 27.196V27.196V2.4759C33.8295 1.66247 33.1722 1 32.3633 1V1H4.46622ZM7.82092 33.5357V28.6719H29.009V33.5344L28.3316 33.8342L26.2697 32.923C26.1352 32.8635 25.9911 32.834 25.8491 32.834V32.834C25.705 32.834 25.5626 32.8635 25.4285 32.923V32.923L23.3683 33.8321L21.3097 32.923C21.0412 32.8045 20.7349 32.8045 20.4685 32.923V32.923L18.4099 33.8321L16.3514 32.923C16.0828 32.8045 15.777 32.8045 15.5089 32.923V32.923L13.4504 33.8321L11.3914 32.923C11.1249 32.8045 10.817 32.8045 10.5485 32.923V32.923L8.49203 33.8321L7.82092 33.5357Z"
          fill="white" />
  </mask>
  <g mask="url(#mask0)">
    <path fill-rule="evenodd"
          clip-rule="evenodd"
          d="M0.905518 37.2293H35.9246V-1.1084H0.905518V37.2293Z"/>
  </g>
  <path fill-rule="evenodd"
        clip-rule="evenodd"
        d="M4.25684 19.7161H32.5749V18.451H4.25684V19.7161Z"/>
</svg>
