<svg width="54"
     height="49"
     viewBox="0 0 54 49"
     xmlns="http://www.w3.org/2000/svg">
  <path fill-rule="evenodd"
        clip-rule="evenodd"
        d="M50.3926 17.1843C50.7351 18.0393 51.165 18.8943 51.6824 19.8362L51.771 20.0061C52.8601 22.0858 53.9966 24.2558 54 26.8309C54 26.8387 54 26.8464 54 26.8541C54 29.4193 52.7976 31.7271 51.679 33.8647C51.1616 34.8066 50.7317 35.6617 50.3889 36.5167C50.0547 37.1812 49.8242 37.8982 49.5771 38.6661C49.5063 38.8862 49.4343 39.1105 49.3579 39.339C49.2944 39.5281 49.2314 39.7178 49.1685 39.9077C48.4622 42.0377 47.7488 44.1887 46.0894 45.8387C44.3708 47.5474 42.0522 48.3157 39.7329 49H14.1914C14.0867 48.9655 13.9817 48.9312 13.8767 48.8967C11.7341 48.1943 9.57031 47.4849 7.91064 45.8347C6.26562 44.1992 5.48438 41.858 4.74316 39.638L4.64209 39.3351C4.43628 38.7689 4.229 38.2039 4.02197 37.6387C3.88477 37.2636 3.74756 36.8884 3.61084 36.5128C3.26831 35.6577 2.83838 34.8027 2.32104 33.8608C1.20239 31.7232 0 29.4153 0 26.8502C0 24.2851 1.20239 21.9772 2.32104 19.8396C2.83838 18.8976 3.26831 18.0426 3.61084 17.1876C3.94531 16.5229 4.17578 15.8058 4.4231 15.0377C4.4939 14.8177 4.56592 14.5936 4.64209 14.3653C4.70557 14.1761 4.76855 13.9865 4.83154 13.7966C5.53784 11.6666 6.25122 9.51556 7.91064 7.86566C9.55566 6.22998 11.9104 5.45294 14.1436 4.71619L14.4473 4.61584C15.3945 4.27515 16.3384 3.93115 17.2856 3.59045C18.1455 3.24982 19.0056 2.82227 19.9529 2.30792C22.1025 1.19568 24.4236 0 27.0034 0C29.5833 0 31.9043 1.19568 34.0508 2.30457C34.998 2.81891 35.8579 3.24646 36.7178 3.58716C37.3855 3.91919 38.1062 4.14844 38.8779 4.39392C39.0999 4.46448 39.3259 4.53638 39.5562 4.61249C39.7461 4.67554 39.9365 4.73798 40.1272 4.80048C42.2698 5.50287 44.4336 6.21216 46.093 7.8623C47.7383 9.49841 48.5198 11.8408 49.261 14.0615L49.3613 14.3619C49.533 14.834 49.7056 15.3051 49.8782 15.7763C50.05 16.2454 50.2217 16.7144 50.3926 17.1843Z"/>
</svg>