<svg width="36"
     height="36"
     viewBox="0 0 36 36"
     xmlns="http://www.w3.org/2000/svg">
  <path fill-rule="evenodd"
        clip-rule="evenodd"
        d="M6.43715 33.5577C6.54744 34.7611 7.53715 35.6355 8.74745 35.6355H27.7411C28.9514 35.6355 29.9411 34.724 30.0514 33.5577L32.177 11.3906H4.3103L6.43715 33.5577Z"/>
  <path fill-rule="evenodd"
        clip-rule="evenodd"
        d="M32.1768 4.46354H22.8998V3.29717C22.8998 2.02112 21.8728 1 20.5895 1H15.9332C14.6499 1 13.6229 2.02112 13.6229 3.29717V4.46354H4.31029C3.02696 4.46354 2 5.48467 2 6.76071C2 8.03675 3.02696 9.05787 4.31029 9.05787H32.177C33.4603 9.05787 34.4873 8.03675 34.4873 6.76071C34.4873 5.48467 33.4603 4.46354 32.177 4.46354H32.1768Z"/>
</svg>
