<svg width="55"
     height="68"
     viewBox="0 0 55 68"
     xmlns="http://www.w3.org/2000/svg">
  <path fill-rule="evenodd"
        clip-rule="evenodd"
        d="M52.4834 19.9851C51.9625 19.0372 51.5295 18.1768 51.1846 17.3163C50.8396 16.3684 50.4912 15.424 50.1463 14.4761C49.3683 12.1535 48.587 9.65611 46.8553 7.93518C45.0356 6.12683 42.614 5.44121 40.2734 4.66473C39.2351 4.32188 38.2813 4.06307 37.4154 3.63286C36.5496 3.29001 35.6837 2.85978 34.7299 2.34216C32.5686 1.22622 30.2315 0.0229492 27.634 0.0229492C25.0364 0.0229492 22.6993 1.22622 20.5347 2.34552C19.5808 2.86314 18.715 3.2934 17.8491 3.63621C16.8953 3.97906 15.945 4.32526 14.9911 4.66808C12.654 5.44116 10.141 6.21761 8.40925 7.93854C6.58957 9.74689 5.89966 12.1534 5.11832 14.4795C4.77333 15.5113 4.51289 16.4592 4.07998 17.3197C3.73499 18.1801 3.30207 19.0406 2.7812 19.9885C1.6549 22.1397 0.444092 24.4622 0.444092 27.0436C0.444092 29.625 1.6549 31.9476 2.7812 34.0987C3.30207 35.0466 3.73503 35.9071 4.07998 36.7676C4.42498 37.7155 4.77334 38.6599 5.11832 39.6078C5.89623 41.9304 6.67755 44.4278 8.40925 46.1487C10.2289 47.9571 12.6506 48.6427 14.9911 49.4192L9.70803 61.5534L17.9336 60.4341L22.7838 67.1465L27.7185 55.7014L32.2202 66.9752L37.2429 60.4343L45.4685 61.8124L40.4458 49.3357C42.783 48.6466 45.1201 47.8736 46.8518 46.1527C48.6714 44.3443 49.3614 41.9378 50.1427 39.6117C50.4877 38.5799 50.7481 37.632 51.181 36.7715C51.526 35.9111 51.959 35.0506 52.4798 34.1027C53.6061 31.9515 54.8169 29.629 54.8169 27.0476C54.8203 24.3754 53.6095 22.1369 52.4832 19.9857L52.4834 19.9851ZM22.4391 63.6976L18.8032 58.6223L12.5698 59.4827L16.7266 50.0176C17.1595 50.189 17.5045 50.2764 17.9374 50.4478C18.8032 50.7907 19.6691 51.2209 20.6229 51.7385C22.5271 52.7704 24.5192 53.8023 26.7718 54.0611L22.4391 63.6976ZM36.5534 58.6223L32.745 63.6136L28.9367 53.9773C31.0133 53.7185 32.921 52.6866 34.7372 51.7387C35.691 51.2211 36.5569 50.7908 37.4227 50.448C37.8556 50.2766 38.3765 50.1052 38.894 49.9304L42.7903 59.738L36.5534 58.6223ZM50.9248 33.2385C50.404 34.1864 49.971 35.0469 49.5381 35.9913C49.1052 36.9392 48.7602 37.9711 48.4997 39.003C47.8064 41.2416 47.113 43.3927 45.6417 44.8548C44.1705 46.3169 42.0058 47.006 39.7532 47.695C38.7149 48.0379 37.6766 48.2967 36.7228 48.7269C35.7689 49.1571 34.8186 49.5874 33.9527 50.105C31.9606 51.1369 29.8839 52.2562 27.6313 52.2562C25.4667 52.2562 23.39 51.1369 21.3099 50.105C20.356 49.5874 19.4902 49.1571 18.5398 48.7269C17.586 48.2967 16.5477 47.9538 15.5093 47.695C13.2567 47.006 11.0921 46.3169 9.62084 44.8548C8.14958 43.3927 7.45621 41.2416 6.76283 39.003C6.41784 37.9711 6.15741 36.9392 5.7245 35.9913C5.29157 35.0434 4.85865 34.099 4.33775 33.2385C3.29942 31.2588 2.17312 29.195 2.17312 26.9565C2.17312 24.8053 3.29942 22.7416 4.33775 20.6744C4.85861 19.7265 5.29157 18.866 5.7245 17.9216C6.15743 16.9737 6.50242 15.9418 6.76283 14.9099C7.45619 12.6714 8.14958 10.5202 9.62084 9.05809C11.0921 7.59599 13.2567 6.90693 15.5093 6.21787C16.5477 5.87502 17.586 5.61621 18.5398 5.186C19.4937 4.75577 20.444 4.32553 21.3099 3.80788C23.302 2.77601 25.3787 1.65671 27.6313 1.65671C29.8839 1.65671 31.8726 2.77601 33.9527 3.80788C34.9065 4.3255 35.7724 4.75577 36.7228 5.186C37.6766 5.61623 38.7149 5.95907 39.7532 6.21787C42.0058 6.90691 44.1705 7.59599 45.6417 9.05809C47.113 10.5202 47.8064 12.6714 48.4997 14.9099C48.8447 15.9418 49.1052 16.9737 49.5381 17.9216C49.971 18.8695 50.4039 19.8139 50.9248 20.6744C51.9632 22.6541 53.0895 24.7179 53.0895 26.9565C53.0895 29.1917 51.9665 31.2588 50.9248 33.2385Z"/>
</svg>
