<svg width="36"
     height="36"
     viewBox="0 0 36 36"
     xmlns="http://www.w3.org/2000/svg">
  <path fill-rule="evenodd"
        clip-rule="evenodd"
        d="M11.9481 7.76819C9.51084 8.812 5.48892 10.1667 1 10.1667V31.666C5.48892 31.666 9.51056 30.3112 11.9481 29.2674V7.76819Z"/>
  <path fill-rule="evenodd"
        clip-rule="evenodd"
        d="M13.164 10.4543V28.7153C13.1932 28.7009 13.2278 28.6852 13.2558 28.6708C13.921 31.0328 18.5229 32.8617 24.1106 32.8617C30.1574 32.8617 35.0587 30.7231 35.0587 28.0842V10.4544C33.127 12.4388 29.06 13.7504 24.1106 13.7504C19.1629 13.7504 15.0956 12.4388 13.1638 10.4544L13.164 10.4543Z"/>
  <path fill-rule="evenodd"
        clip-rule="evenodd"
        d="M24.1105 3C18.0637 3 13.1624 5.13855 13.1624 7.77743C13.1624 10.4163 18.0637 12.5549 24.1105 12.5549C30.1573 12.5549 35.0586 10.4163 35.0586 7.77743C35.0586 5.13983 30.1573 3 24.1105 3ZM24.1105 8.97273C21.423 8.97273 19.2452 8.17061 19.2452 7.18165C19.2452 6.19142 21.4244 5.38927 24.1105 5.38927C26.7979 5.38927 28.9757 6.19139 28.9757 7.18035C28.9771 8.16928 26.7979 8.97273 24.1105 8.97273Z"/>
</svg>
