<svg width="537" height="650" viewBox="0 0 537 650" fill="none" xmlns="http://www.w3.org/2000/svg">
<path d="M530.36 26.3753C477.922 0 268.088 0 268.088 0C268.088 0 58.9268 0 6.64005 26.3753C6.64005 26.3753 -8.30006 307.439 6.64005 430.418C12.6912 479.955 56.2407 525.23 106.217 561.615C180.166 615.558 268.088 650 268.088 650C268.088 650 384.62 604.501 462.534 536.136C498.09 504.979 525.652 468.97 530.36 430.418C545.3 307.439 530.36 26.3753 530.36 26.3753ZM503.245 419.513C500.407 442.898 488.233 465.164 470.751 485.783C471.423 456.649 465.819 422.95 451.63 384.175C451.63 384.175 422.364 305.497 411.135 283.036C396.693 254.147 376.157 224.739 376.157 212.938C376.157 201.129 383.688 175.455 388.808 168.261C392.382 163.235 402.78 149.657 398.816 145.699C394.859 141.742 377.081 152.496 377.081 152.496C376.41 153.167 314.259 183.948 345.634 246.781C377.081 309.541 392.772 344.879 388.808 348.837C388.808 348.837 294.611 310.855 251.437 357.929C219.542 392.747 226.763 414.782 226.763 422.633C226.763 430.483 239.638 576.565 388.808 482.28C388.808 482.28 373.124 576.565 278.927 576.565C184.73 576.565 184.73 486.231 184.73 486.231C184.73 486.231 187.199 405.299 228.525 349.458C288.379 268.584 302.821 232.474 303.074 215.942C303.803 168.883 295.6 153.03 295.6 153.03C295.6 153.03 278.927 85.7702 206.313 103.479C206.313 103.479 151.333 95.6356 123.843 146.66C123.843 146.66 68.9423 185.883 96.3529 213.378C96.3529 213.378 94.4105 223.164 98.3676 227.122C102.252 231.007 94.4105 215.321 102.252 215.321C102.252 215.321 114.059 219.279 121.901 215.321C129.743 211.435 110.094 223.164 114.059 231.007C114.059 231.007 96.2807 231.607 88.8071 239.075C85.0738 242.808 90.5256 258.502 82.6043 262.46C74.7623 266.345 63.0355 282.111 66.9204 289.955C66.9204 289.955 75.4339 276.131 82.6043 273.221C83.7235 272.773 84.9222 273.596 84.9222 274.788C84.9944 278.825 86.4891 287.86 98.2954 293.84C97.6238 293.096 90.374 285.022 96.649 273.596C99.7829 267.992 100.83 261.42 100.238 254.992C100.086 253.425 100.014 251.851 100.014 250.283C100.014 242.44 114.059 238.93 114.059 238.93C114.059 238.93 141.549 278.154 208.256 203.592C208.256 203.592 223.94 199.634 231.789 187.826C231.789 187.826 243.588 238.93 176.888 313.492C176.888 313.492 92.3309 404.787 99.0536 518.355C64.9924 489.517 38.1739 455.746 33.7691 419.513C20.3237 309.238 33.7691 57.2355 33.7691 57.2355C80.6041 33.6263 268.175 33.6263 268.175 33.6263C268.175 33.6263 456.266 33.6263 503.253 57.2355C503.245 57.2355 516.691 309.238 503.245 419.513ZM367.217 413.605C367.217 413.605 304.395 456.786 292.668 429.291C292.668 429.291 288.711 409.64 316.201 405.754C343.692 401.804 367.217 413.605 367.217 413.605Z" fill="#1C6329"/>
</svg>
